<svg width="66" height="28" viewBox="0 0 66 28" fill="none" xmlns="http://www.w3.org/2000/svg">
<path d="M4.04027 18.0213C3.8661 18.0213 3.77827 17.9281 3.77827 17.7371V7.43918C3.77827 6.38352 4.09683 5.51333 4.73395 4.8286C5.37107 4.14388 6.19229 3.80202 7.19759 3.80302H8.97349C9.16105 3.80302 9.25632 3.89174 9.25632 4.06769V5.2256C9.26153 5.26429 9.2578 5.30368 9.2454 5.34067C9.23301 5.37766 9.2123 5.41124 9.18489 5.43878C9.15748 5.46632 9.12413 5.48707 9.08745 5.4994C9.05077 5.51172 9.01176 5.51529 8.97349 5.50982H7.33603C7.09784 5.50102 6.86068 5.54568 6.64163 5.64059C6.42258 5.7355 6.22709 5.8783 6.06923 6.0587C5.737 6.45411 5.56475 6.96162 5.58692 7.47978V10.1204H8.58347C8.61898 10.1154 8.65517 10.1187 8.68916 10.1303C8.72316 10.1418 8.75402 10.1612 8.77931 10.1869C8.80459 10.2126 8.8236 10.2439 8.83483 10.2783C8.84606 10.3127 8.84919 10.3493 8.84398 10.3851V11.543C8.84925 11.5788 8.84615 11.6153 8.83493 11.6497C8.8237 11.6841 8.80466 11.7153 8.77933 11.7409C8.75401 11.7665 8.7231 11.7857 8.68908 11.797C8.65507 11.8084 8.6189 11.8115 8.58347 11.8062H5.58841V17.7371C5.58841 17.9281 5.50207 18.0213 5.3279 18.0213H4.04027Z" fill="#211E1F"/>
<path d="M10.0929 18.0215C10.0546 18.0273 10.0155 18.024 9.97872 18.0118C9.94193 17.9996 9.90851 17.9788 9.88113 17.9512C9.85375 17.9235 9.83319 17.8897 9.8211 17.8526C9.80902 17.8154 9.80574 17.7759 9.81154 17.7372V11.3807C9.81154 10.297 10.1261 9.43334 10.7553 8.78972C11.3845 8.1461 12.2156 7.82479 13.2487 7.82579H13.993C14.1672 7.82579 14.255 7.92053 14.255 8.11V9.20627C14.26 9.24219 14.2566 9.27879 14.2452 9.31318C14.2338 9.34756 14.2146 9.37881 14.1892 9.40446C14.1638 9.43011 14.1329 9.44946 14.0989 9.46099C14.0648 9.47253 14.0286 9.47593 13.993 9.47093H13.2696C13.0391 9.4601 12.8088 9.49678 12.5928 9.57873C12.3768 9.66069 12.1796 9.7862 12.0132 9.94763C11.8517 10.119 11.7265 10.3217 11.6451 10.5436C11.5637 10.7654 11.5279 11.0016 11.5398 11.2379V17.7372C11.5453 17.7759 11.5418 17.8152 11.5296 17.8522C11.5174 17.8892 11.4968 17.9229 11.4695 17.9504C11.4422 17.978 11.4089 17.9988 11.3723 18.0111C11.3357 18.0235 11.2967 18.027 11.2585 18.0215H10.0929Z" fill="#211E1F"/>
<path d="M17.713 18.2247C16.7603 18.2247 15.9926 17.9204 15.4101 17.3119C14.8276 16.7034 14.5363 15.9043 14.5363 14.9149V10.9328C14.5482 9.95837 14.8459 9.16988 15.4295 8.56736C16.013 7.96485 16.7801 7.66409 17.7308 7.66509C18.6706 7.65206 19.4417 7.94981 20.0441 8.55834C20.3434 8.86157 20.5781 9.22344 20.7337 9.62171C20.8894 10.02 20.9627 10.4462 20.9492 10.8742C20.9612 11.2841 20.8879 11.6919 20.734 12.0714C20.5802 12.4509 20.3492 12.7936 20.056 13.0772C19.4665 13.6527 18.6959 13.9409 17.7442 13.9419H16.2675V14.9946C16.2483 15.4137 16.389 15.8244 16.6605 16.1419C16.7974 16.2893 16.9646 16.4047 17.1502 16.48C17.3358 16.5553 17.5355 16.5888 17.7353 16.578C17.9209 16.5837 18.1055 16.5496 18.2772 16.4781C18.4488 16.4065 18.6035 16.2992 18.7312 16.163C19.0007 15.8654 19.1541 15.479 19.1629 15.0758C19.1611 15.0388 19.1673 15.0019 19.1811 14.9677C19.1949 14.9334 19.2159 14.9026 19.2427 14.8774C19.2695 14.8522 19.3014 14.8332 19.3362 14.8218C19.371 14.8103 19.4079 14.8067 19.4442 14.8111H20.6351C20.6707 14.8061 20.7069 14.8095 20.7409 14.821C20.775 14.8326 20.8059 14.8519 20.8313 14.8776C20.8567 14.9032 20.8758 14.9345 20.8872 14.9688C20.8987 15.0032 20.902 15.0398 20.8971 15.0758C20.8435 16.0231 20.5249 16.7846 19.9414 17.36C19.6468 17.6484 19.2975 17.8736 18.9146 18.0222C18.5316 18.1708 18.1229 18.2397 17.713 18.2247ZM16.2646 12.3599H17.7532C17.9497 12.3707 18.1464 12.3413 18.3313 12.2733C18.5163 12.2054 18.6857 12.1003 18.8294 11.9644C18.9622 11.8251 19.0654 11.6599 19.1327 11.4789C19.2001 11.2979 19.2301 11.1049 19.2209 10.9118C19.2416 10.4844 19.0975 10.0656 18.819 9.74333C18.679 9.5968 18.5096 9.48211 18.3222 9.40692C18.1348 9.33172 17.9337 9.29773 17.7323 9.30723C17.2639 9.30723 16.9022 9.44909 16.6471 9.7328C16.3921 10.0165 16.2656 10.41 16.2675 10.9133L16.2646 12.3599Z" fill="#211E1F"/>
<path d="M25.2129 18.2456C24.2086 18.2456 23.4042 17.9408 22.7999 17.3313C22.1939 16.7161 21.854 15.8834 21.8546 15.0155C21.8546 14.8125 21.9484 14.7147 22.1374 14.7147H23.303C23.3392 14.7103 23.3759 14.7139 23.4106 14.7253C23.4453 14.7367 23.4772 14.7555 23.5039 14.7806C23.5307 14.8056 23.5517 14.8362 23.5656 14.8703C23.5795 14.9044 23.5859 14.9411 23.5844 14.9779C23.6687 16.0466 24.2071 16.5804 25.1995 16.5794C25.655 16.5794 26.0023 16.4646 26.2415 16.235C26.3622 16.117 26.4569 15.9746 26.5192 15.817C26.5815 15.6594 26.6102 15.4903 26.6032 15.3207C26.601 15.1359 26.5575 14.954 26.4757 14.7886C26.394 14.6232 26.2763 14.4787 26.1313 14.3658C25.7839 14.076 25.3936 13.8431 24.9747 13.6756C24.5192 13.4861 24.0637 13.2761 23.6082 13.0455C23.1483 12.8135 22.7513 12.4718 22.4515 12.05C22.1296 11.5946 21.9639 11.0454 21.9796 10.4861C21.9678 10.1053 22.0364 9.72637 22.181 9.3745C22.3255 9.02263 22.5425 8.70591 22.8177 8.44543C23.3804 7.91008 24.1108 7.64241 25.0089 7.64241C26.0271 7.64241 26.8012 7.92362 27.3312 8.48603C27.8728 9.0655 28.1753 9.83192 28.1767 10.6289C28.1767 10.8184 28.0889 10.9131 27.9147 10.9131H26.7238C26.688 10.9152 26.6521 10.9099 26.6183 10.8975C26.5845 10.8852 26.5536 10.8661 26.5273 10.8414C26.501 10.8167 26.48 10.7868 26.4654 10.7537C26.4508 10.7205 26.443 10.6847 26.4425 10.6485C26.432 10.2816 26.289 9.93128 26.0405 9.6635C25.9108 9.53558 25.7563 9.43614 25.5867 9.37144C25.4171 9.30674 25.2361 9.27818 25.0551 9.28755C24.6919 9.26911 24.3357 9.39301 24.0607 9.63342C23.9383 9.74619 23.8417 9.88447 23.7774 10.0387C23.7131 10.1929 23.6828 10.3594 23.6886 10.5267C23.6913 10.7051 23.7366 10.8803 23.8205 11.0374C23.9045 11.1944 24.0247 11.3287 24.1709 11.4289C24.5247 11.6997 24.912 11.9227 25.323 12.0921C25.7726 12.2816 26.2251 12.4916 26.6806 12.7222C27.1438 12.9583 27.544 13.3034 27.8477 13.7282C28.1771 14.199 28.3449 14.7657 28.3255 15.3418C28.3361 15.7309 28.2644 16.1177 28.1153 16.4766C27.9661 16.8355 27.743 17.1581 27.4607 17.423C26.8881 17.9724 26.1388 18.2466 25.2129 18.2456Z" fill="#211E1F"/>
<path d="M29.9775 18.0213C29.9393 18.0269 29.9003 18.0233 29.8637 18.011C29.827 17.9987 29.7938 17.9779 29.7664 17.9503C29.7391 17.9227 29.7186 17.8891 29.7064 17.8521C29.6942 17.8151 29.6907 17.7757 29.6961 17.7371V4.06768C29.6961 3.89174 29.7899 3.80302 29.9775 3.80302H31.1446C31.3321 3.80302 31.4259 3.89174 31.4259 4.06768V8.35348C31.6265 8.12393 31.8743 7.94137 32.152 7.81852C32.4297 7.69568 32.7305 7.6355 33.0336 7.64218C33.9456 7.64218 34.6765 7.95397 35.2263 8.57754C35.7761 9.20111 36.051 10.0066 36.051 10.9941V17.7371C36.0565 17.7759 36.053 17.8154 36.0407 17.8525C36.0285 17.8897 36.0077 17.9234 35.9803 17.951C35.9528 17.9786 35.9193 17.9994 35.8825 18.0116C35.8456 18.0238 35.8065 18.0271 35.7682 18.0213H34.6026C34.5644 18.0269 34.5254 18.0233 34.4888 18.011C34.4521 17.9987 34.4188 17.9779 34.3915 17.9503C34.3642 17.9227 34.3437 17.8891 34.3315 17.8521C34.3193 17.8151 34.3158 17.7757 34.3212 17.7371V10.9325C34.3446 10.5004 34.2041 10.0756 33.9283 9.74448C33.7911 9.59737 33.624 9.48217 33.4384 9.40686C33.2528 9.33156 33.0532 9.29795 32.8535 9.30838C32.6588 9.30017 32.4648 9.33494 32.2848 9.41026C32.1049 9.48557 31.9433 9.59963 31.8115 9.74448C31.536 10.0757 31.396 10.5006 31.42 10.9325V17.7371C31.4254 17.7757 31.4219 17.8151 31.4097 17.8521C31.3975 17.8891 31.377 17.9227 31.3497 17.9503C31.3224 17.9779 31.2891 17.9987 31.2524 18.011C31.2158 18.0233 31.1768 18.0269 31.1386 18.0213H29.9775Z" fill="#211E1F"/>
<path d="M38.1008 18.0213C37.9802 18.0213 37.9206 17.9687 37.9206 17.8589V7.182C37.9206 6.12634 38.2055 5.27018 38.7751 4.61353C39.3447 3.95688 40.1124 3.62855 41.078 3.62855C42.0426 3.62855 42.8132 3.96038 43.3898 4.62406C43.9664 5.28773 44.2546 6.13987 44.2546 7.18049V9.2858C44.2546 10.2482 43.9594 11.0407 43.3689 11.6633C42.7785 12.2859 42.0148 12.5971 41.078 12.5971H38.8659V17.8604C38.8677 17.8822 38.8648 17.9041 38.8574 17.9246C38.8499 17.9452 38.8381 17.9638 38.8228 17.9793C38.8075 17.9947 38.7891 18.0066 38.7687 18.0142C38.7484 18.0217 38.7267 18.0246 38.7051 18.0228L38.1008 18.0213ZM38.8659 11.7054H41.078C41.3773 11.715 41.6752 11.6606 41.9523 11.5458C42.2293 11.431 42.4793 11.2584 42.6857 11.0392C43.1005 10.5981 43.3084 10.0121 43.3094 9.28128V7.17598C43.3094 6.37396 43.1084 5.73084 42.7065 5.24662C42.5088 5.00668 42.2591 4.81594 41.9767 4.6892C41.6943 4.56246 41.3867 4.50312 41.078 4.51578C40.7704 4.50221 40.4639 4.56119 40.1828 4.68804C39.9016 4.8149 39.6536 5.00614 39.4584 5.24662C39.0614 5.73385 38.8629 6.37697 38.8629 7.17598L38.8659 11.7054Z" fill="#0AAD0A"/>
<path d="M48.2726 18.1852C47.3348 18.1852 46.5875 17.8975 46.0308 17.3221C45.4741 16.7466 45.1957 15.9847 45.1957 15.0363C45.1835 14.6503 45.2524 14.266 45.3979 13.9088C45.5434 13.5516 45.7621 13.2297 46.0397 12.9641C46.6024 12.4227 47.3527 12.152 48.2905 12.152H50.3016V10.8107C50.3016 10.1199 50.121 9.57153 49.7598 9.16551C49.3985 8.75949 48.9023 8.55648 48.2712 8.55648C48.0111 8.54398 47.7513 8.58529 47.5076 8.67786C47.2639 8.77044 47.0415 8.91233 46.854 9.09483C46.4862 9.48062 46.2739 9.99103 46.2586 10.5264C46.2452 10.6482 46.1856 10.7099 46.0784 10.7099H45.5351C45.5105 10.7135 45.4854 10.7112 45.4618 10.7032C45.4383 10.6952 45.4169 10.6818 45.3994 10.6639C45.3818 10.6461 45.3687 10.6244 45.361 10.6005C45.3533 10.5766 45.3512 10.5513 45.355 10.5264C45.381 9.75925 45.6913 9.0299 46.2243 8.48279C46.7463 7.95446 47.4301 7.6903 48.2756 7.6903C49.1598 7.6903 49.8704 7.97802 50.4073 8.55347C50.9442 9.12892 51.2121 9.88382 51.2111 10.8182V15.0438C51.2111 15.9782 50.9467 16.7366 50.4177 17.319C49.8888 17.9015 49.1737 18.1902 48.2726 18.1852ZM48.2726 17.3311C48.9028 17.3311 49.399 17.1246 49.7612 16.7115C50.1235 16.2985 50.3041 15.7401 50.3031 15.0363V13.0047H48.295C47.6122 13.0047 47.0763 13.1911 46.6873 13.5641C46.4925 13.7539 46.3398 13.9832 46.2393 14.237C46.1387 14.4908 46.0925 14.7632 46.1037 15.0363C46.1037 15.7381 46.2948 16.2965 46.6769 16.7115C47.0589 17.1266 47.5909 17.3331 48.2726 17.3311Z" fill="#0AAD0A"/>
<path d="M55.7957 18.2049C54.9115 18.2049 54.191 17.9107 53.6343 17.3222C53.0775 16.7337 52.7992 15.9783 52.7992 15.056V10.889C52.7992 9.95562 53.0706 9.18719 53.6134 8.58367C54.1563 7.98015 54.8703 7.67939 55.7555 7.6814C56.5991 7.6814 57.2893 7.94556 57.8262 8.47389C58.3698 9.01716 58.6809 9.75415 58.6925 10.5266C58.6925 10.6484 58.639 10.71 58.5318 10.71H57.9691C57.8604 10.71 57.8083 10.6484 57.8083 10.5266C57.7915 9.98794 57.5722 9.47601 57.195 9.09496C57.0026 8.91341 56.7764 8.77232 56.5295 8.67989C56.2827 8.58747 56.0201 8.54556 55.757 8.5566C55.4757 8.54364 55.195 8.59445 54.9356 8.7053C54.6763 8.81615 54.4447 8.98423 54.258 9.19722C53.8898 9.62329 53.7052 10.1872 53.7042 10.889V15.053C53.7042 15.7317 53.8918 16.2831 54.2669 16.7071C54.6421 17.1312 55.1517 17.3407 55.7957 17.3357C56.0702 17.3463 56.3437 17.2981 56.5984 17.1945C56.8532 17.0908 57.0833 16.934 57.2739 16.7342C57.668 16.2946 57.8866 15.7228 57.8872 15.1297C57.8872 15.0214 57.9468 14.9672 58.0673 14.9672H58.6107C58.7313 14.9672 58.7908 15.0214 58.7908 15.1297C58.7372 16.0319 58.4395 16.7733 57.8976 17.3538C57.6264 17.6373 57.299 17.8596 56.9368 18.0063C56.5745 18.153 56.1857 18.2207 55.7957 18.2049Z" fill="#0AAD0A"/>
<path d="M63.416 12.3551C64.1002 12.4487 64.7284 12.7876 65.1859 13.31C65.6361 13.8478 65.8722 14.5355 65.8483 15.2394V17.859C65.8501 17.8807 65.8472 17.9024 65.8399 17.9229C65.8325 17.9433 65.8209 17.9618 65.8057 17.9773C65.7906 17.9927 65.7723 18.0046 65.7522 18.0123C65.7321 18.0199 65.7105 18.023 65.6891 18.0214H65.1249C65.1033 18.0232 65.0816 18.0203 65.0613 18.0128C65.041 18.0053 65.0225 17.9933 65.0072 17.9779C64.9919 17.9624 64.9801 17.9438 64.9727 17.9232C64.9652 17.9027 64.9623 17.8808 64.9641 17.859V15.2394C64.9641 14.5898 64.7696 14.075 64.3806 13.695C63.9916 13.3151 63.4755 13.1256 62.8324 13.1266H61.0461V17.859C61.0479 17.8808 61.045 17.9027 61.0376 17.9232C61.0301 17.9438 61.0183 17.9624 61.003 17.9779C60.9877 17.9933 60.9693 18.0053 60.9489 18.0128C60.9286 18.0203 60.9069 18.0232 60.8853 18.0214H60.3227C60.3011 18.0232 60.2794 18.0203 60.2591 18.0128C60.2387 18.0053 60.2203 17.9933 60.205 17.9779C60.1897 17.9624 60.1779 17.9438 60.1704 17.9232C60.163 17.9027 60.1601 17.8808 60.1619 17.859V3.97152C60.1601 3.94973 60.163 3.9278 60.1704 3.90727C60.1779 3.88674 60.1897 3.86809 60.205 3.85263C60.2203 3.83717 60.2387 3.82526 60.2591 3.81775C60.2794 3.81023 60.3011 3.80728 60.3227 3.80911H60.8853C60.9067 3.80774 60.928 3.81103 60.948 3.81875C60.968 3.82647 60.986 3.83844 61.001 3.85385C61.016 3.86926 61.0275 3.88774 61.0348 3.90805C61.042 3.92835 61.0449 3.95 61.0431 3.97152V12.2529H62.4916L65.0043 7.98813C65.0219 7.94982 65.0504 7.91771 65.0862 7.89599C65.1221 7.87427 65.1635 7.86394 65.2053 7.86633H65.8483C65.9952 7.86633 66.0354 7.934 65.9689 8.06934L63.416 12.3551Z" fill="#0AAD0A"/>
<path d="M3.77812 3.06928C3.77791 3.28781 3.75395 3.50566 3.70667 3.71891C3.48704 3.7704 3.26227 3.79613 3.0368 3.79561C2.58337 3.79674 2.13547 3.69503 1.72614 3.49798C1.31681 3.30093 0.956486 3.01357 0.67175 2.65708C0.387015 2.3006 0.185129 1.88409 0.0809848 1.43828C-0.0231599 0.992467 -0.0269062 0.528724 0.0700206 0.081253C0.289066 0.02597 0.514117 -0.00131148 0.739891 4.84358e-05C1.54568 4.84358e-05 2.31847 0.323413 2.88825 0.899005C3.45803 1.4746 3.77812 2.25527 3.77812 3.06928Z" fill="#0AAD0A"/>
<path fill-rule="evenodd" clip-rule="evenodd" d="M49.6953 21.9649H65.1419C65.6158 21.9649 66 22.3509 66 22.8271V27.1378C66 27.614 65.6158 28 65.1419 28H49.6953C49.2214 28 48.8372 27.614 48.8372 27.1378V22.8271C48.8372 22.3509 49.2214 21.9649 49.6953 21.9649ZM51.8185 23.739V24.208H50.8275V24.7977H51.7902V25.2667H50.8275V26.226H50.3391V23.739H51.8185ZM54.259 25.9027C54.0077 26.1514 53.7033 26.2757 53.3459 26.2757C52.9849 26.2757 52.6805 26.1514 52.4327 25.9027C52.185 25.654 52.0611 25.3449 52.0611 24.9825C52.0611 24.6201 52.185 24.3146 52.4327 24.0659C52.6805 23.8172 52.9849 23.6893 53.3459 23.6893C53.7033 23.6893 54.0077 23.8172 54.259 24.0659C54.5068 24.3146 54.6342 24.6201 54.6342 24.9825C54.6342 25.3449 54.5068 25.654 54.259 25.9027ZM56.8639 26.226H56.3365L55.8375 25.3626H55.4659V26.226H54.9775V23.739H55.9685C56.195 23.739 56.3896 23.8207 56.5524 23.9806C56.7117 24.144 56.7931 24.3359 56.7931 24.5632C56.7931 24.7196 56.7471 24.8617 56.6621 24.9931C56.5737 25.1246 56.4569 25.2241 56.3153 25.288L56.8639 26.226ZM59.4449 23.739H59.9971L59.1476 25.2561V26.226H58.6628V25.2561L57.8169 23.739H58.369L58.907 24.7764L59.4449 23.739ZM62.1394 25.9027C61.8882 26.1514 61.5838 26.2757 61.2263 26.2757C60.8653 26.2757 60.5609 26.1514 60.3132 25.9027C60.0654 25.654 59.9415 25.3449 59.9415 24.9825C59.9415 24.6201 60.0654 24.3146 60.3132 24.0659C60.5609 23.8172 60.8653 23.6893 61.2263 23.6893C61.5838 23.6893 61.8882 23.8172 62.1394 24.0659C62.3872 24.3146 62.5146 24.6201 62.5146 24.9825C62.5146 25.3449 62.3872 25.654 62.1394 25.9027ZM64.4474 26.0412C64.2705 26.1976 64.0404 26.2757 63.7644 26.2757C63.4883 26.2757 63.2618 26.1976 63.0848 26.0412C62.9079 25.8849 62.8194 25.6753 62.8194 25.4124V23.739H63.3043V25.3733C63.3043 25.5047 63.3396 25.6078 63.414 25.6824C63.4883 25.7606 63.6051 25.7961 63.7644 25.7961C63.9201 25.7961 64.0369 25.7606 64.1112 25.6824C64.1855 25.6078 64.2245 25.5047 64.2245 25.3733V23.739H64.7129V25.4124C64.7129 25.6753 64.6244 25.8849 64.4474 26.0412Z" fill="#0AAD0A"/>
<path d="M53.3459 25.7961C53.1194 25.7961 52.9282 25.7215 52.776 25.5687C52.6203 25.4159 52.546 25.2205 52.546 24.9825C52.546 24.748 52.6203 24.5526 52.776 24.3963C52.9282 24.2435 53.1194 24.1653 53.3459 24.1653C53.5724 24.1653 53.76 24.2435 53.9157 24.3963C54.0679 24.5526 54.1458 24.748 54.1458 24.9825C54.1458 25.2205 54.0679 25.4159 53.9157 25.5687C53.76 25.7215 53.5724 25.7961 53.3459 25.7961Z" fill="#0AAD0A"/>
<path d="M55.4659 24.1973H55.9685C56.0605 24.1973 56.1383 24.2328 56.2056 24.3039C56.2693 24.375 56.3047 24.4638 56.3047 24.5632C56.3047 24.6663 56.2693 24.7551 56.2056 24.8262C56.1383 24.8972 56.0605 24.9327 55.9685 24.9327H55.4659V24.1973Z" fill="#0AAD0A"/>
<path d="M61.2263 25.7961C60.9998 25.7961 60.8087 25.7215 60.6565 25.5687C60.5008 25.4159 60.4264 25.2205 60.4264 24.9825C60.4264 24.748 60.5008 24.5526 60.6565 24.3963C60.8087 24.2435 60.9998 24.1653 61.2263 24.1653C61.4528 24.1653 61.6404 24.2435 61.7961 24.3963C61.9483 24.5526 62.0262 24.748 62.0262 24.9825C62.0262 25.2205 61.9483 25.4159 61.7961 25.5687C61.6404 25.7215 61.4528 25.7961 61.2263 25.7961Z" fill="#0AAD0A"/>
<path d="M51.8185 24.208V23.739H50.3391V26.226H50.8275V25.2667H51.7902V24.7977H50.8275V24.208H51.8185Z" fill="white"/>
<path fill-rule="evenodd" clip-rule="evenodd" d="M53.3459 26.2757C53.7033 26.2757 54.0077 26.1514 54.259 25.9027C54.5068 25.654 54.6342 25.3449 54.6342 24.9825C54.6342 24.6201 54.5068 24.3146 54.259 24.0659C54.0077 23.8172 53.7033 23.6893 53.3459 23.6893C52.9849 23.6893 52.6805 23.8172 52.4327 24.0659C52.185 24.3146 52.0611 24.6201 52.0611 24.9825C52.0611 25.3449 52.185 25.654 52.4327 25.9027C52.6805 26.1514 52.9849 26.2757 53.3459 26.2757ZM52.776 25.5687C52.9282 25.7215 53.1194 25.7961 53.3459 25.7961C53.5724 25.7961 53.76 25.7215 53.9157 25.5687C54.0679 25.4159 54.1458 25.2205 54.1458 24.9825C54.1458 24.748 54.0679 24.5526 53.9157 24.3963C53.76 24.2435 53.5724 24.1653 53.3459 24.1653C53.1194 24.1653 52.9282 24.2435 52.776 24.3963C52.6203 24.5526 52.546 24.748 52.546 24.9825C52.546 25.2205 52.6203 25.4159 52.776 25.5687Z" fill="white"/>
<path fill-rule="evenodd" clip-rule="evenodd" d="M56.3365 26.226H56.8639L56.3153 25.288C56.4569 25.2241 56.5737 25.1246 56.6621 24.9931C56.7471 24.8617 56.7931 24.7196 56.7931 24.5632C56.7931 24.3359 56.7117 24.144 56.5524 23.9806C56.3896 23.8207 56.195 23.739 55.9685 23.739H54.9775V26.226H55.4659V25.3626H55.8375L56.3365 26.226ZM55.9685 24.1973H55.4659V24.9327H55.9685C56.0605 24.9327 56.1383 24.8972 56.2056 24.8262C56.2693 24.7551 56.3047 24.6663 56.3047 24.5632C56.3047 24.4638 56.2693 24.375 56.2056 24.3039C56.1383 24.2328 56.0605 24.1973 55.9685 24.1973Z" fill="white"/>
<path d="M59.9971 23.739H59.4449L58.907 24.7764L58.369 23.739H57.8169L58.6628 25.2561V26.226H59.1476V25.2561L59.9971 23.739Z" fill="white"/>
<path fill-rule="evenodd" clip-rule="evenodd" d="M61.2263 26.2757C61.5838 26.2757 61.8882 26.1514 62.1394 25.9027C62.3872 25.654 62.5146 25.3449 62.5146 24.9825C62.5146 24.6201 62.3872 24.3146 62.1394 24.0659C61.8882 23.8172 61.5838 23.6893 61.2263 23.6893C60.8653 23.6893 60.5609 23.8172 60.3132 24.0659C60.0654 24.3146 59.9415 24.6201 59.9415 24.9825C59.9415 25.3449 60.0654 25.654 60.3132 25.9027C60.5609 26.1514 60.8653 26.2757 61.2263 26.2757ZM60.6565 25.5687C60.8087 25.7215 60.9998 25.7961 61.2263 25.7961C61.4528 25.7961 61.6404 25.7215 61.7961 25.5687C61.9483 25.4159 62.0262 25.2205 62.0262 24.9825C62.0262 24.748 61.9483 24.5526 61.7961 24.3963C61.6404 24.2435 61.4528 24.1653 61.2263 24.1653C60.9998 24.1653 60.8087 24.2435 60.6565 24.3963C60.5008 24.5526 60.4264 24.748 60.4264 24.9825C60.4264 25.2205 60.5008 25.4159 60.6565 25.5687Z" fill="white"/>
<path d="M63.7644 26.2757C64.0404 26.2757 64.2705 26.1976 64.4474 26.0412C64.6244 25.8849 64.7129 25.6753 64.7129 25.4124V23.739H64.2245V25.3733C64.2245 25.5047 64.1855 25.6078 64.1112 25.6824C64.0369 25.7606 63.9201 25.7961 63.7644 25.7961C63.6051 25.7961 63.4883 25.7606 63.414 25.6824C63.3396 25.6078 63.3043 25.5047 63.3043 25.3733V23.739H62.8194V25.4124C62.8194 25.6753 62.9079 25.8849 63.0848 26.0412C63.2618 26.1976 63.4883 26.2757 63.7644 26.2757Z" fill="white"/>
</svg>
